<svg xmlns="http://www.w3.org/2000/svg" viewBox="0 0 800 1000"><defs><linearGradient id="g" x1="0" y1="0" x2="1" y2="1"><stop offset="0" stop-color="#5a5d3a"/><stop offset="1" stop-color="#12130f"/></linearGradient></defs><rect width="800" height="1000" fill="url(#g)"/><g stroke="#000" stroke-opacity=".18" stroke-width="2"><line x1="-100" y1="200" x2="300" y2="0"/><line x1="-100" y1="400" x2="500" y2="0"/><line x1="-100" y1="600" x2="700" y2="0"/><line x1="-100" y1="800" x2="900" y2="0"/><line x1="-100" y1="1000" x2="1100" y2="0"/></g><g transform="translate(100,60) scale(1.5)" fill="#6b6e46" stroke="#0a0a09" stroke-width="2"><path d="M140 70l-70 40-40 120 40 10 20-60v250h220V180l20 60 40-10-40-120-70-40c-10 25-30 38-60 38s-50-13-60-38z"/><path d="M200 108v312" fill="none"/></g><text x="400" y="880" text-anchor="middle" font-family="Arial Black,Arial,sans-serif" font-size="76" fill="#ecebe4" letter-spacing="6">FS-02</text><text x="400" y="928" text-anchor="middle" font-family="Arial,sans-serif" font-size="30" fill="#c2b28f" letter-spacing="2">URBAN UTILITY PANT</text><text x="400" y="968" text-anchor="middle" font-family="Arial,sans-serif" font-size="20" fill="#8a8b86" letter-spacing="8">JUNGRAI TACT</text></svg>
